<svg id="svg" version="1.1" xmlns="http://www.w3.org/2000/svg" xmlns:xlink="http://www.w3.org/1999/xlink" width="400" height="348.51485148514854" viewBox="0, 0, 400,348.51485148514854"><g id="svgg"><path id="path0" d="M134.141 231.370 C 133.581 231.567,133.107 232.051,132.981 232.554 C 132.864 233.022,132.476 233.696,132.120 234.052 C 131.765 234.408,131.473 235.013,131.473 235.397 C 131.473 235.780,131.319 236.094,131.129 236.094 C 130.940 236.094,130.551 236.604,130.265 237.228 C 129.707 238.442,129.218 239.255,128.248 240.584 C 127.912 241.043,127.637 241.633,127.637 241.895 C 127.637 242.157,127.323 242.685,126.940 243.069 C 126.556 243.452,126.242 244.080,126.242 244.464 C 126.242 244.847,126.088 245.161,125.898 245.161 C 125.709 245.161,125.311 245.671,125.014 246.295 C 124.097 248.217,123.354 249.494,122.870 249.979 C 122.615 250.234,122.406 250.737,122.406 251.097 C 122.406 251.458,122.195 251.878,121.936 252.031 C 121.497 252.292,121.201 252.762,119.789 255.449 C 119.487 256.024,118.860 257.123,118.395 257.890 C 117.931 258.657,117.373 259.717,117.155 260.244 C 116.937 260.772,116.629 261.203,116.471 261.203 C 116.313 261.203,116.002 261.752,115.780 262.424 C 115.559 263.095,115.248 263.644,115.090 263.644 C 114.932 263.644,114.624 264.076,114.406 264.603 C 114.188 265.131,113.628 266.190,113.163 266.957 C 111.746 269.293,110.948 270.747,110.530 271.752 C 110.311 272.280,110.006 272.711,109.852 272.711 C 109.698 272.711,109.393 273.143,109.175 273.670 C 108.957 274.198,108.393 275.257,107.923 276.024 C 107.452 276.792,106.826 277.890,106.531 278.466 C 106.025 279.453,105.575 280.222,103.926 282.912 C 103.544 283.535,103.040 284.438,102.807 284.917 C 102.573 285.397,102.101 286.163,101.758 286.621 C 101.414 287.078,101.133 287.745,101.133 288.103 C 101.133 288.461,100.979 288.753,100.789 288.753 C 100.600 288.753,100.208 289.263,99.918 289.887 C 99.628 290.510,99.077 291.491,98.692 292.066 C 98.308 292.642,97.747 293.583,97.447 294.159 C 97.146 294.734,96.522 295.833,96.060 296.600 C 95.597 297.367,95.021 298.387,94.780 298.867 C 94.539 299.346,94.143 299.946,93.902 300.199 C 93.660 300.452,93.367 301.040,93.250 301.507 C 93.133 301.973,92.909 302.354,92.753 302.354 C 92.597 302.354,92.288 302.903,92.066 303.575 C 91.845 304.246,91.531 304.795,91.369 304.795 C 91.207 304.795,90.893 305.344,90.671 306.016 C 90.450 306.687,90.127 307.236,89.953 307.236 C 89.780 307.236,89.540 307.629,89.420 308.108 C 89.299 308.588,89.071 308.980,88.912 308.980 C 88.754 308.980,88.425 309.529,88.183 310.201 C 87.940 310.872,87.635 311.421,87.505 311.421 C 87.375 311.421,87.062 311.931,86.810 312.554 C 86.558 313.178,86.249 313.766,86.124 313.862 C 85.912 314.025,85.665 314.453,84.208 317.175 C 83.901 317.751,83.268 318.849,82.803 319.616 C 82.338 320.384,81.716 321.482,81.421 322.058 C 81.126 322.633,80.577 323.575,80.202 324.150 C 79.826 324.725,79.328 325.588,79.093 326.068 C 78.859 326.548,78.387 327.314,78.044 327.772 C 77.700 328.229,77.419 328.896,77.419 329.254 C 77.419 329.611,77.259 329.904,77.063 329.904 C 76.867 329.904,76.514 330.336,76.278 330.863 C 76.043 331.391,75.340 332.603,74.717 333.558 C 74.093 334.513,73.583 335.429,73.583 335.595 C 73.583 335.761,73.269 336.296,72.886 336.784 C 72.502 337.271,72.188 337.963,72.188 338.321 C 72.188 338.679,72.024 338.971,71.823 338.971 C 71.622 338.971,71.261 339.403,71.021 339.930 C 69.439 343.413,69.251 343.444,67.834 340.453 C 67.538 339.830,67.154 339.320,66.980 339.320 C 66.806 339.320,66.558 338.839,66.429 338.250 C 66.300 337.662,65.973 337.096,65.704 336.992 C 65.434 336.889,65.214 336.584,65.214 336.315 C 65.214 336.046,64.900 335.557,64.516 335.229 C 64.133 334.900,63.819 334.285,63.819 333.862 C 63.819 333.439,63.622 332.885,63.383 332.632 C 62.604 331.809,61.029 329.354,61.029 328.964 C 61.029 328.755,60.793 328.493,60.506 328.383 C 60.218 328.273,59.983 327.791,59.983 327.313 C 59.983 326.835,59.701 326.163,59.356 325.820 C 59.012 325.477,58.545 324.765,58.318 324.237 C 58.091 323.710,57.745 323.278,57.549 323.278 C 57.353 323.278,57.193 322.985,57.193 322.628 C 57.193 322.270,56.906 321.603,56.555 321.146 C 56.204 320.688,55.816 320.039,55.694 319.704 C 55.571 319.368,55.309 319.093,55.111 319.093 C 54.913 319.093,54.752 318.779,54.752 318.396 C 54.752 318.012,54.438 317.384,54.054 317.001 C 53.670 316.617,53.357 316.068,53.357 315.780 C 53.357 315.493,53.043 314.943,52.659 314.560 C 52.276 314.176,51.962 313.691,51.962 313.481 C 51.962 313.272,51.648 312.701,51.264 312.214 C 50.881 311.726,50.567 311.051,50.567 310.714 C 50.567 310.377,50.346 310.016,50.076 309.913 C 49.807 309.809,49.478 309.233,49.346 308.631 C 49.214 308.030,48.885 307.453,48.616 307.350 C 48.346 307.246,48.126 306.973,48.126 306.742 C 48.126 306.511,47.812 305.985,47.428 305.573 C 47.044 305.161,46.731 304.607,46.731 304.341 C 46.731 304.075,46.417 303.573,46.033 303.226 C 45.650 302.879,45.336 302.341,45.336 302.031 C 45.336 301.721,44.712 300.529,43.951 299.382 C 43.189 298.236,42.561 297.095,42.556 296.847 C 42.544 296.313,41.162 294.277,40.541 293.880 C 40.301 293.726,40.105 293.226,40.105 292.767 C 40.105 292.308,39.956 291.841,39.774 291.729 C 39.225 291.389,37.315 288.404,37.315 287.885 C 37.315 287.618,37.155 287.301,36.961 287.181 C 36.766 287.060,36.379 286.418,36.102 285.753 C 35.824 285.088,35.355 284.303,35.061 284.008 C 34.766 283.714,34.525 283.265,34.525 283.012 C 34.525 282.758,34.289 282.460,34.002 282.350 C 33.714 282.240,33.479 281.865,33.479 281.518 C 33.479 281.171,33.220 280.518,32.903 280.066 C 32.587 279.614,31.949 278.520,31.485 277.634 C 31.021 276.749,30.428 275.858,30.165 275.654 C 29.903 275.450,29.580 274.849,29.446 274.318 C 29.313 273.787,28.989 273.270,28.726 273.169 C 28.463 273.068,28.248 272.710,28.248 272.372 C 28.248 272.035,27.960 271.385,27.609 270.928 C 27.259 270.470,26.859 269.861,26.721 269.573 C 26.583 269.285,26.087 268.422,25.618 267.655 C 25.149 266.888,24.527 265.750,24.235 265.126 C 23.943 264.503,23.550 263.993,23.361 263.993 C 23.171 263.993,23.017 263.703,23.017 263.350 C 23.017 262.996,22.703 262.422,22.319 262.075 C 21.935 261.728,21.622 261.175,21.622 260.847 C 21.622 260.519,21.308 259.852,20.924 259.364 C 20.541 258.877,20.227 258.370,20.227 258.239 C 20.227 258.108,19.913 257.601,19.529 257.113 C 19.146 256.626,18.832 255.929,18.832 255.565 C 18.832 255.202,18.596 254.814,18.309 254.703 C 18.021 254.593,17.786 254.308,17.786 254.071 C 17.786 253.833,17.490 253.371,17.128 253.044 C 16.766 252.717,16.378 251.986,16.265 251.421 C 16.145 250.822,15.837 250.392,15.527 250.392 C 15.202 250.392,14.996 250.075,14.996 249.575 C 14.996 249.125,14.682 248.473,14.298 248.126 C 13.915 247.778,13.601 247.277,13.601 247.011 C 13.601 246.745,13.320 246.103,12.976 245.583 C 11.838 243.859,11.487 243.252,11.070 242.284 C 10.844 241.757,10.457 241.325,10.211 241.325 C 9.966 241.325,9.765 240.931,9.765 240.450 C 9.765 239.969,9.451 239.306,9.067 238.977 C 8.684 238.649,8.370 238.122,8.370 237.807 C 8.370 237.492,8.056 236.835,7.672 236.348 C 7.289 235.860,6.975 235.290,6.975 235.080 C 6.975 234.871,6.757 234.699,6.490 234.699 C 6.214 234.699,5.909 234.181,5.779 233.491 C 5.568 232.362,5.036 231.639,4.680 231.995 C 4.420 232.256,5.622 234.854,6.140 235.152 C 6.407 235.306,6.626 235.586,6.626 235.775 C 6.626 235.964,7.685 237.928,8.980 240.141 C 10.275 242.354,11.538 244.585,11.788 245.099 C 12.038 245.613,12.384 246.269,12.557 246.556 C 12.730 246.844,13.367 247.932,13.973 248.974 C 14.578 250.016,15.292 251.087,15.558 251.353 C 15.824 251.619,16.042 252.090,16.042 252.400 C 16.042 252.710,16.337 253.287,16.698 253.683 C 17.059 254.079,18.030 255.658,18.856 257.193 C 20.969 261.122,22.272 263.389,25.347 268.486 C 25.765 269.180,26.352 270.218,26.651 270.793 C 27.794 272.994,29.383 275.697,29.828 276.199 C 30.083 276.487,30.463 277.115,30.673 277.594 C 30.882 278.074,31.435 279.093,31.900 279.861 C 32.365 280.628,32.912 281.624,33.117 282.075 C 33.321 282.526,34.008 283.703,34.643 284.691 C 35.278 285.678,36.178 287.271,36.643 288.230 C 37.108 289.189,37.902 290.523,38.408 291.194 C 38.913 291.866,39.579 292.964,39.889 293.636 C 40.199 294.307,40.761 295.327,41.139 295.902 C 41.517 296.478,42.067 297.419,42.361 297.995 C 42.656 298.570,43.355 299.747,43.914 300.610 C 44.474 301.473,44.944 302.430,44.960 302.736 C 44.975 303.042,45.301 303.576,45.684 303.923 C 46.068 304.270,46.382 304.820,46.382 305.144 C 46.382 305.468,46.667 305.991,47.016 306.307 C 47.364 306.622,48.019 307.628,48.470 308.541 C 48.921 309.454,49.403 310.279,49.540 310.375 C 49.678 310.471,50.050 311.099,50.367 311.770 C 51.115 313.356,52.536 315.846,55.702 321.114 C 56.129 321.825,56.624 322.728,56.801 323.122 C 56.978 323.515,57.604 324.550,58.192 325.421 C 58.780 326.292,59.431 327.383,59.640 327.844 C 59.848 328.306,60.363 329.258,60.785 329.960 C 61.207 330.662,61.992 331.996,62.530 332.924 C 63.067 333.853,63.659 334.847,63.844 335.135 C 64.030 335.423,64.424 336.129,64.721 336.704 C 65.019 337.280,65.643 338.378,66.110 339.146 C 66.576 339.913,67.430 341.521,68.007 342.720 L 69.057 344.900 200.668 344.900 L 332.279 344.900 333.240 343.243 C 333.768 342.332,334.489 341.212,334.842 340.755 C 335.195 340.298,335.484 339.650,335.484 339.316 C 335.484 338.981,335.732 338.502,336.034 338.251 C 336.337 338.000,336.981 337.011,337.467 336.054 C 337.952 335.096,338.567 334.094,338.834 333.827 C 339.101 333.560,339.323 333.157,339.327 332.931 C 339.330 332.705,339.833 331.735,340.445 330.776 C 341.727 328.764,342.263 327.842,343.597 325.350 C 344.127 324.360,344.872 323.154,345.253 322.670 C 345.634 322.185,345.947 321.614,345.947 321.400 C 345.948 321.186,346.426 320.305,347.009 319.442 C 347.593 318.579,348.297 317.402,348.574 316.827 C 349.408 315.094,351.215 312.006,351.915 311.116 C 352.276 310.657,352.572 310.118,352.572 309.919 C 352.572 309.721,352.784 309.310,353.043 309.007 C 353.302 308.705,353.883 307.751,354.334 306.888 C 354.785 306.024,355.652 304.534,356.259 303.575 C 356.867 302.616,357.857 300.903,358.459 299.770 C 359.061 298.636,359.685 297.538,359.846 297.329 C 360.007 297.120,360.513 296.242,360.970 295.379 C 361.428 294.516,362.080 293.436,362.418 292.978 C 362.757 292.521,363.034 291.980,363.034 291.777 C 363.034 291.217,361.381 293.576,360.519 295.366 C 360.100 296.237,359.553 297.156,359.303 297.409 C 359.053 297.663,358.849 298.028,358.849 298.220 C 358.849 298.727,355.984 303.527,355.500 303.832 C 355.275 303.973,354.996 304.468,354.879 304.932 C 354.763 305.396,354.118 306.611,353.445 307.631 C 352.773 308.652,352.223 309.610,352.223 309.760 C 352.223 309.910,351.679 310.807,351.014 311.753 C 350.349 312.699,349.705 313.874,349.582 314.365 C 349.458 314.856,349.237 315.257,349.089 315.257 C 348.941 315.257,348.614 315.767,348.362 316.391 C 347.927 317.465,346.719 319.413,346.255 319.791 C 346.136 319.887,345.928 320.323,345.792 320.760 C 345.655 321.197,345.007 322.370,344.350 323.367 C 343.693 324.365,343.156 325.325,343.156 325.501 C 343.156 325.677,342.627 326.622,341.980 327.601 C 341.334 328.580,340.343 330.244,339.778 331.299 C 339.213 332.354,338.254 334.002,337.647 334.961 C 337.040 335.920,336.540 336.876,336.537 337.086 C 336.533 337.296,336.216 337.752,335.833 338.099 C 335.449 338.447,335.135 339.009,335.135 339.349 C 335.135 339.689,334.939 340.175,334.699 340.428 C 334.459 340.682,333.810 341.556,333.257 342.371 C 332.100 344.074,331.909 344.145,331.358 343.069 C 331.136 342.637,330.758 341.980,330.517 341.607 C 329.253 339.656,327.758 337.151,327.439 336.451 C 327.241 336.015,326.733 335.085,326.312 334.385 C 325.033 332.261,322.787 328.410,322.232 327.389 C 321.713 326.436,313.075 311.379,312.471 310.375 C 312.298 310.087,302.161 292.511,289.944 271.316 C 277.728 250.122,267.398 232.428,266.988 231.996 L 266.244 231.212 200.666 231.125 C 159.694 231.070,134.732 231.162,134.141 231.370 M396.705 232.716 C 396.338 233.327,395.655 234.534,395.187 235.397 C 394.718 236.260,394.119 237.214,393.855 237.517 C 393.247 238.213,393.220 238.743,393.824 238.124 C 394.417 237.516,397.648 231.882,397.492 231.727 C 397.426 231.660,397.071 232.106,396.705 232.716 M393.053 239.167 C 393.038 239.418,392.476 240.343,391.805 241.222 C 391.133 242.101,390.584 243.002,390.584 243.224 C 390.584 243.445,390.395 243.816,390.164 244.047 C 389.708 244.503,388.237 247.066,386.223 250.913 C 385.521 252.254,384.820 253.431,384.666 253.528 C 384.512 253.626,384.128 254.255,383.814 254.926 C 383.219 256.196,382.988 256.592,381.445 258.981 C 380.934 259.773,380.262 260.950,379.951 261.597 C 379.289 262.978,378.530 264.333,377.343 266.260 C 375.944 268.528,374.901 270.403,374.673 271.055 C 374.557 271.391,374.339 271.665,374.191 271.665 C 374.042 271.665,373.666 272.254,373.355 272.973 C 372.611 274.692,370.795 277.893,369.968 278.945 C 369.607 279.404,369.311 279.908,369.311 280.064 C 369.311 280.221,368.858 281.023,368.303 281.848 C 367.749 282.673,367.043 283.897,366.736 284.568 C 366.428 285.240,365.474 286.888,364.615 288.230 C 363.756 289.573,363.049 290.825,363.044 291.014 C 363.027 291.601,365.813 287.260,367.068 284.743 C 367.355 284.167,367.899 283.226,368.277 282.650 C 368.655 282.075,369.213 281.065,369.518 280.406 C 369.823 279.747,370.446 278.718,370.902 278.120 C 371.358 277.522,371.973 276.492,372.270 275.831 C 372.839 274.563,372.991 274.298,374.800 271.431 C 375.426 270.439,376.040 269.341,376.165 268.990 C 376.290 268.639,376.589 268.117,376.829 267.829 C 377.069 267.541,377.765 266.364,378.376 265.214 C 378.987 264.063,379.861 262.493,380.319 261.726 C 380.777 260.959,381.320 260.017,381.527 259.634 C 381.733 259.250,382.247 258.358,382.668 257.650 C 385.216 253.377,387.097 250.103,387.097 249.942 C 387.097 249.840,387.646 248.922,388.317 247.902 C 388.989 246.883,389.538 245.873,389.538 245.659 C 389.538 245.444,389.852 244.906,390.235 244.464 C 390.619 244.022,390.933 243.525,390.933 243.361 C 390.933 243.196,391.491 242.267,392.174 241.296 C 392.857 240.325,393.340 239.346,393.248 239.120 C 393.132 238.835,393.072 238.850,393.053 239.167 " stroke="none" fill="#0498c4" fill-rule="evenodd"></path><path id="path1" d="M136.255 4.184 C 136.154 4.568,136.219 4.972,136.398 5.083 C 136.577 5.194,136.994 5.809,137.325 6.450 C 137.655 7.091,138.631 8.844,139.493 10.346 C 140.355 11.849,141.218 13.353,141.411 13.689 C 141.604 14.025,145.051 19.988,149.072 26.941 C 153.093 33.893,156.702 40.160,157.093 40.866 C 157.761 42.075,170.736 64.547,189.331 96.703 C 198.598 112.727,198.545 112.634,200.961 117.175 C 202.759 120.555,203.157 121.271,204.479 123.500 C 206.042 126.136,208.375 130.251,208.500 130.594 C 208.572 130.790,209.158 131.758,209.803 132.746 C 210.448 133.733,211.143 134.910,211.347 135.361 C 211.551 135.812,212.101 136.809,212.569 137.576 C 213.038 138.344,213.620 139.364,213.863 139.843 C 214.107 140.323,214.743 141.389,215.276 142.214 C 215.810 143.038,216.405 144.059,216.598 144.481 C 216.791 144.903,217.295 145.819,217.716 146.517 C 218.138 147.214,219.189 149.019,220.051 150.527 C 220.913 152.035,221.776 153.542,221.969 153.876 C 222.162 154.210,232.114 171.472,244.086 192.237 C 256.057 213.002,266.086 230.266,266.372 230.602 C 266.993 231.332,396.944 231.577,397.393 230.849 C 397.572 230.560,395.651 226.878,393.034 222.493 C 392.862 222.206,387.337 212.663,380.755 201.287 C 374.173 189.911,368.443 180.025,368.020 179.317 C 367.598 178.609,367.139 177.794,367.002 177.507 C 366.798 177.081,364.882 173.764,363.376 171.229 C 363.205 170.942,362.313 169.396,361.393 167.795 C 360.474 166.194,359.375 164.311,358.953 163.611 C 358.531 162.910,358.073 162.101,357.937 161.813 C 357.705 161.325,354.051 155.010,352.327 152.117 C 351.905 151.408,351.447 150.593,351.310 150.305 C 351.065 149.789,347.189 143.070,345.708 140.593 C 345.290 139.893,344.700 138.849,344.398 138.274 C 344.096 137.698,343.497 136.643,343.066 135.928 C 342.636 135.213,341.835 133.801,341.286 132.789 C 340.737 131.778,340.101 130.715,339.871 130.427 C 339.642 130.139,339.264 129.512,339.032 129.032 C 338.799 128.553,338.259 127.576,337.831 126.861 C 337.403 126.146,336.603 124.734,336.054 123.722 C 335.504 122.711,334.894 121.685,334.700 121.443 C 334.354 121.014,333.672 119.824,332.552 117.698 C 332.249 117.123,331.605 116.024,331.121 115.257 C 330.637 114.490,330.078 113.548,329.880 113.165 C 329.682 112.781,329.142 111.840,328.680 111.072 C 328.218 110.305,327.599 109.207,327.303 108.631 C 327.008 108.056,326.452 107.114,326.068 106.539 C 325.684 105.963,325.123 105.022,324.823 104.446 C 324.522 103.871,323.901 102.772,323.443 102.005 C 322.984 101.238,322.368 100.139,322.072 99.564 C 321.777 98.989,321.221 98.047,320.837 97.472 C 320.453 96.896,319.892 95.955,319.592 95.379 C 319.291 94.804,318.665 93.705,318.200 92.938 C 317.735 92.171,317.113 91.072,316.818 90.497 C 316.523 89.922,316.012 89.033,315.682 88.522 C 314.440 86.598,312.816 83.696,312.816 83.400 C 312.816 83.231,312.520 82.717,312.159 82.258 C 311.504 81.425,309.800 78.535,308.791 76.548 C 308.499 75.972,307.991 75.084,307.661 74.573 C 307.332 74.062,306.546 72.728,305.916 71.609 C 305.286 70.489,304.616 69.337,304.428 69.050 C 304.239 68.762,303.889 68.134,303.651 67.655 C 303.413 67.175,302.781 66.108,302.248 65.284 C 301.714 64.459,301.119 63.439,300.926 63.017 C 300.733 62.595,300.229 61.669,299.808 60.960 C 297.778 57.546,295.822 54.177,295.596 53.705 C 295.459 53.418,295.000 52.602,294.578 51.893 C 291.382 46.527,290.497 44.961,290.497 44.671 C 290.497 44.489,290.296 44.132,290.049 43.878 C 289.803 43.625,287.678 40.044,285.326 35.920 C 282.974 31.796,280.909 28.187,280.738 27.899 C 280.567 27.611,279.390 25.571,278.123 23.365 C 276.856 21.160,275.677 19.119,275.504 18.832 C 275.331 18.544,273.429 15.248,271.278 11.508 C 269.127 7.768,267.133 4.433,266.846 4.098 C 265.973 3.073,136.523 3.159,136.255 4.184 " stroke="none" fill="#cc1618" fill-rule="evenodd"></path><path id="path2" d="M135.484 3.406 C 134.798 3.909,132.764 7.178,130.137 11.994 C 129.499 13.165,128.783 14.359,128.547 14.647 C 128.311 14.935,127.735 15.950,127.267 16.904 C 126.799 17.857,125.907 19.386,125.283 20.300 C 124.660 21.215,124.150 22.176,124.150 22.436 C 124.150 22.696,123.836 23.193,123.452 23.540 C 123.069 23.887,122.755 24.284,122.755 24.422 C 122.755 24.655,121.936 26.128,120.076 29.241 C 119.658 29.941,119.070 30.985,118.769 31.561 C 118.469 32.136,117.908 33.078,117.524 33.653 C 117.140 34.228,116.580 35.228,116.280 35.875 C 115.981 36.522,115.320 37.699,114.812 38.491 C 113.647 40.306,112.798 41.787,112.305 42.862 C 112.093 43.323,111.439 44.414,110.851 45.285 C 110.263 46.156,109.633 47.191,109.450 47.585 C 109.268 47.978,108.748 48.928,108.295 49.695 C 107.842 50.462,107.054 51.914,106.543 52.922 C 106.032 53.930,105.421 54.950,105.185 55.189 C 104.949 55.428,104.294 56.565,103.729 57.716 C 103.165 58.867,102.193 60.498,101.569 61.340 C 100.946 62.183,100.436 63.145,100.436 63.477 C 100.436 63.810,100.204 64.275,99.920 64.510 C 99.636 64.746,99.166 65.393,98.874 65.948 C 98.281 67.077,97.630 68.211,96.395 70.270 C 95.935 71.037,95.317 72.136,95.022 72.711 C 94.727 73.287,94.176 74.228,93.798 74.804 C 93.420 75.379,92.858 76.399,92.548 77.071 C 92.239 77.742,91.492 79.076,90.888 80.035 C 89.258 82.626,89.029 83.018,88.061 84.868 C 87.573 85.801,86.863 86.960,86.482 87.444 C 86.101 87.928,85.789 88.503,85.789 88.721 C 85.789 88.939,85.267 89.910,84.630 90.878 C 83.992 91.846,83.365 92.914,83.235 93.252 C 83.106 93.589,82.488 94.676,81.862 95.668 C 81.236 96.660,80.527 97.786,80.285 98.169 C 80.044 98.553,79.599 99.416,79.296 100.087 C 78.993 100.759,78.537 101.543,78.284 101.831 C 78.031 102.119,77.413 103.139,76.911 104.098 C 75.460 106.871,74.104 109.224,73.137 110.646 C 72.644 111.371,71.905 112.626,71.494 113.436 C 71.084 114.246,70.483 115.333,70.160 115.853 C 68.502 118.518,62.075 129.802,62.075 130.048 C 62.075 130.205,61.779 130.709,61.418 131.169 C 61.056 131.628,60.311 132.802,59.761 133.778 C 57.214 138.299,56.065 140.201,55.769 140.384 C 55.593 140.493,55.449 140.875,55.449 141.234 C 55.449 141.592,55.244 142.093,54.994 142.346 C 54.743 142.600,54.160 143.514,53.698 144.377 C 53.235 145.240,52.595 146.260,52.275 146.643 C 51.955 147.027,51.578 147.733,51.437 148.213 C 51.297 148.692,50.987 149.320,50.749 149.608 C 50.093 150.400,44.987 159.316,44.987 159.668 C 44.987 159.837,44.691 160.352,44.330 160.811 C 43.968 161.271,43.223 162.457,42.673 163.448 C 42.124 164.439,40.929 166.513,40.017 168.057 C 39.106 169.601,38.361 170.973,38.361 171.107 C 38.361 171.240,38.143 171.596,37.877 171.899 C 37.612 172.202,36.935 173.313,36.374 174.368 C 35.814 175.423,34.954 176.917,34.463 177.687 C 33.973 178.458,33.074 180.022,32.465 181.162 C 31.857 182.303,31.129 183.490,30.849 183.799 C 30.569 184.109,30.340 184.510,30.340 184.691 C 30.340 184.872,29.830 185.801,29.207 186.756 C 28.583 187.711,27.874 188.884,27.630 189.364 C 27.387 189.843,26.813 190.863,26.355 191.630 C 25.199 193.569,24.696 194.454,23.387 196.861 C 22.761 198.012,22.047 199.189,21.802 199.477 C 21.556 199.765,21.248 200.353,21.116 200.784 C 20.985 201.216,20.339 202.369,19.680 203.348 C 19.022 204.326,18.483 205.270,18.483 205.444 C 18.483 205.619,17.969 206.505,17.342 207.414 C 16.714 208.323,16.005 209.459,15.765 209.939 C 15.526 210.418,14.957 211.439,14.500 212.206 C 14.044 212.973,13.171 214.582,12.560 215.780 C 11.950 216.979,11.322 217.960,11.165 217.960 C 11.008 217.960,10.705 218.391,10.492 218.919 C 10.279 219.446,9.725 220.506,9.261 221.273 C 8.797 222.040,8.175 223.139,7.878 223.714 C 7.581 224.289,7.186 224.996,7.001 225.283 C 3.881 230.133,3.450 231.526,4.573 233.130 C 4.980 233.712,5.193 233.866,5.054 233.479 C 4.295 231.367,-2.183 231.561,69.291 231.561 C 123.144 231.561,134.239 231.481,134.773 231.090 C 135.127 230.832,135.667 230.133,135.973 229.537 C 136.280 228.942,137.472 226.844,138.622 224.875 C 139.773 222.906,140.950 220.859,141.238 220.327 C 141.526 219.794,143.971 215.552,146.672 210.900 C 153.209 199.638,181.325 150.949,182.230 149.321 C 182.623 148.616,186.232 142.345,190.251 135.386 C 194.270 128.428,198.053 121.846,198.658 120.760 C 199.262 119.674,200.086 118.664,200.489 118.515 C 200.891 118.366,201.221 118.173,201.221 118.087 C 201.221 117.751,199.785 114.811,198.700 112.924 C 198.072 111.833,193.857 104.535,189.331 96.708 C 167.806 59.472,157.743 42.042,157.093 40.866 C 156.702 40.160,153.093 33.893,149.072 26.941 C 145.051 19.988,141.604 14.025,141.411 13.689 C 141.218 13.353,140.355 11.849,139.493 10.346 C 138.631 8.844,137.655 7.091,137.325 6.450 C 136.994 5.809,136.577 5.194,136.398 5.083 C 136.219 4.972,136.154 4.568,136.255 4.185 C 136.436 3.493,136.807 3.489,201.348 3.400 L 266.260 3.311 201.046 3.230 C 165.179 3.186,135.676 3.265,135.484 3.406 M5.231 234.682 C 5.231 234.861,5.384 235.101,5.571 235.217 C 5.758 235.333,6.477 236.439,7.169 237.676 C 7.860 238.912,8.571 240.014,8.748 240.123 C 8.926 240.233,8.521 239.384,7.848 238.237 C 7.176 237.090,6.626 236.016,6.626 235.851 C 6.626 235.687,6.312 235.283,5.929 234.954 C 5.545 234.626,5.231 234.503,5.231 234.682 M9.200 241.074 C 9.494 241.977,11.625 245.161,11.811 244.975 C 11.898 244.888,11.732 244.541,11.442 244.204 C 11.152 243.868,10.483 242.886,9.956 242.023 C 9.429 241.160,9.089 240.733,9.200 241.074 M12.871 247.693 C 13.194 248.315,13.922 249.529,14.488 250.392 C 15.055 251.255,15.625 252.197,15.756 252.485 C 15.954 252.922,15.997 252.912,16.017 252.422 C 16.031 252.101,15.824 251.619,15.558 251.353 C 15.292 251.087,14.570 249.977,13.955 248.887 C 12.756 246.763,11.896 245.815,12.871 247.693 M16.383 253.655 C 16.952 254.387,17.138 254.714,18.797 257.889 C 19.450 259.138,20.209 260.346,20.485 260.576 C 20.761 260.805,20.531 260.216,19.974 259.267 C 19.417 258.318,18.589 256.794,18.135 255.881 C 17.681 254.968,16.988 253.948,16.595 253.615 C 15.907 253.032,15.899 253.033,16.383 253.655 M22.319 263.896 C 22.319 264.099,22.642 264.635,23.037 265.088 L 23.755 265.911 23.143 264.865 C 22.337 263.488,22.319 263.467,22.319 263.896 M23.714 266.169 C 23.714 266.340,24.800 268.260,26.399 270.915 C 26.820 271.615,27.333 272.557,27.537 273.008 C 27.741 273.459,28.424 274.636,29.054 275.624 C 29.683 276.611,30.568 278.126,31.019 278.989 C 31.470 279.852,32.051 280.806,32.310 281.109 C 32.569 281.411,32.781 281.807,32.781 281.988 C 32.781 282.169,33.306 283.114,33.947 284.088 C 34.588 285.062,35.615 286.888,36.228 288.146 C 36.841 289.405,37.611 290.642,37.939 290.896 C 38.488 291.320,38.494 291.302,38.012 290.665 C 37.724 290.285,37.108 289.189,36.643 288.230 C 36.178 287.271,35.278 285.678,34.643 284.691 C 34.008 283.703,33.321 282.526,33.117 282.075 C 32.912 281.624,32.365 280.628,31.900 279.861 C 31.435 279.093,30.909 278.144,30.732 277.750 C 30.555 277.357,29.929 276.322,29.341 275.451 C 28.753 274.580,28.101 273.489,27.893 273.028 C 27.685 272.566,27.133 271.561,26.667 270.793 C 26.201 270.026,25.627 269.006,25.391 268.527 C 24.928 267.585,23.714 265.878,23.714 266.169 M39.171 293.035 C 39.992 294.731,41.151 296.347,41.151 295.796 C 41.151 295.589,40.981 295.315,40.773 295.187 C 40.566 295.059,40.108 294.282,39.756 293.461 C 39.404 292.640,38.968 291.877,38.787 291.765 C 38.606 291.653,38.778 292.225,39.171 293.035 M42.197 298.424 C 42.197 298.616,42.489 299.147,42.846 299.604 C 43.203 300.062,43.823 301.064,44.225 301.831 C 44.627 302.598,44.963 303.039,44.972 302.810 C 44.989 302.349,43.807 300.197,42.828 298.907 C 42.481 298.449,42.197 298.232,42.197 298.424 M45.377 303.923 C 45.688 304.307,46.029 304.856,46.134 305.144 C 46.298 305.588,46.331 305.583,46.354 305.111 C 46.369 304.805,46.029 304.256,45.597 303.890 C 44.819 303.231,44.817 303.232,45.377 303.923 M46.776 306.392 C 47.088 306.760,47.610 307.587,47.935 308.228 C 48.260 308.869,48.604 309.315,48.700 309.220 C 48.926 308.994,47.243 306.328,46.658 305.985 C 46.410 305.840,46.463 306.023,46.776 306.392 M48.823 309.831 C 48.823 309.974,49.137 310.490,49.520 310.977 C 49.904 311.465,50.218 311.710,50.218 311.521 C 50.218 311.333,49.904 310.817,49.520 310.375 C 49.137 309.933,48.823 309.688,48.823 309.831 M50.218 312.347 C 50.218 312.558,50.453 312.926,50.741 313.165 C 51.029 313.404,51.264 313.798,51.264 314.041 C 51.264 314.284,51.574 314.853,51.952 315.306 L 52.640 316.129 52.034 314.908 C 51.233 313.297,50.218 311.865,50.218 312.347 M52.664 316.526 C 52.662 316.745,52.982 317.294,53.376 317.747 C 53.940 318.394,54.017 318.421,53.737 317.873 C 53.132 316.690,52.670 316.110,52.664 316.526 M54.054 318.831 C 54.054 319.138,55.446 321.530,56.213 322.540 C 56.560 322.998,56.844 323.213,56.844 323.019 C 56.844 322.825,56.609 322.471,56.321 322.232 C 56.033 321.993,55.798 321.612,55.798 321.385 C 55.798 321.158,55.405 320.441,54.926 319.791 C 54.446 319.141,54.054 318.709,54.054 318.831 M56.844 323.814 C 56.844 323.969,57.065 324.343,57.334 324.646 C 57.604 324.948,58.560 326.595,59.459 328.305 C 60.357 330.014,61.297 331.617,61.547 331.867 C 61.797 332.117,62.359 333.072,62.796 333.990 C 63.655 335.793,64.865 337.538,64.865 336.973 C 64.865 336.781,64.551 336.225,64.167 335.737 C 63.784 335.250,63.470 334.715,63.470 334.549 C 63.470 334.383,62.960 333.466,62.337 332.512 C 61.713 331.557,61.007 330.384,60.766 329.904 C 59.245 326.867,56.844 323.140,56.844 323.814 M65.753 339.054 C 66.212 339.872,66.909 341.129,67.303 341.848 C 67.696 342.568,68.096 343.156,68.192 343.156 C 68.288 343.156,68.010 342.508,67.575 341.716 C 67.139 340.923,66.513 339.758,66.182 339.127 C 65.852 338.495,65.433 337.886,65.250 337.773 C 65.068 337.661,65.294 338.237,65.753 339.054 " stroke="none" fill="#7dbb25" fill-rule="evenodd"></path><path id="path3" d="M0.000 174.368 L 0.000 348.736 200.000 348.736 L 400.000 348.736 400.000 174.368 L 400.000 0.000 200.000 0.000 L 0.000 0.000 0.000 174.368 M266.826 4.098 C 267.305 4.625,267.887 5.449,268.119 5.929 C 268.351 6.408,268.919 7.428,269.381 8.195 C 269.844 8.963,270.468 10.061,270.769 10.636 C 271.069 11.212,271.624 12.153,272.002 12.729 C 272.380 13.304,272.931 14.246,273.226 14.821 C 273.521 15.397,274.143 16.495,274.608 17.262 C 275.073 18.030,275.699 19.128,276.000 19.704 C 276.300 20.279,276.861 21.221,277.245 21.796 C 277.629 22.371,278.190 23.313,278.490 23.888 C 278.791 24.464,279.412 25.562,279.871 26.330 C 280.331 27.097,281.060 28.352,281.492 29.119 C 281.924 29.887,282.475 30.828,282.716 31.212 C 282.957 31.595,283.405 32.380,283.711 32.956 C 284.017 33.531,284.648 34.629,285.113 35.397 C 285.578 36.164,286.200 37.262,286.495 37.838 C 286.790 38.413,287.341 39.355,287.719 39.930 C 288.097 40.506,288.652 41.447,288.952 42.023 C 289.253 42.598,289.841 43.642,290.259 44.342 C 292.137 47.485,292.938 48.930,292.938 49.173 C 292.938 49.317,293.135 49.598,293.375 49.798 C 293.615 49.997,294.340 51.154,294.986 52.369 C 295.632 53.583,296.533 55.205,296.988 55.972 C 297.443 56.739,298.063 57.838,298.365 58.413 C 298.667 58.989,299.257 60.040,299.675 60.749 C 302.340 65.266,303.662 67.546,303.881 68.003 C 304.018 68.291,304.477 69.100,304.899 69.801 C 305.321 70.501,306.419 72.384,307.339 73.985 C 308.259 75.586,309.151 77.132,309.322 77.419 C 310.828 79.954,312.744 83.271,312.948 83.697 C 313.085 83.984,313.544 84.798,313.966 85.504 C 315.178 87.531,338.737 128.237,339.320 129.311 C 339.608 129.841,340.785 131.886,341.935 133.855 C 343.086 135.824,344.263 137.863,344.551 138.385 C 345.138 139.453,347.463 143.432,348.632 145.370 C 349.054 146.070,349.512 146.879,349.648 147.167 C 349.864 147.623,351.233 149.995,353.844 154.437 C 354.256 155.137,354.934 156.373,355.352 157.183 C 355.770 157.993,356.455 159.170,356.874 159.798 C 357.292 160.427,357.836 161.334,358.082 161.813 C 358.327 162.293,358.719 162.999,358.952 163.383 C 359.184 163.766,360.081 165.314,360.943 166.822 C 361.805 168.331,362.856 170.135,363.278 170.833 C 363.699 171.530,364.203 172.447,364.396 172.869 C 364.589 173.291,365.184 174.311,365.718 175.136 C 366.251 175.960,366.887 177.027,367.130 177.507 C 367.374 177.986,367.925 178.963,368.355 179.678 C 368.785 180.393,369.586 181.805,370.135 182.816 C 370.684 183.828,371.320 184.891,371.550 185.179 C 371.779 185.466,372.157 186.094,372.389 186.574 C 372.622 187.053,373.194 188.073,373.659 188.840 C 374.125 189.608,374.669 190.549,374.867 190.933 C 375.065 191.316,375.624 192.258,376.108 193.025 C 376.592 193.793,377.225 194.891,377.514 195.466 C 378.086 196.604,378.323 197.004,380.026 199.703 C 380.649 200.691,381.326 201.868,381.530 202.319 C 381.734 202.770,382.285 203.766,382.753 204.534 C 383.221 205.301,383.852 206.399,384.154 206.975 C 384.456 207.550,385.079 208.649,385.537 209.416 C 385.996 210.183,386.612 211.282,386.908 211.857 C 387.203 212.432,387.759 213.374,388.143 213.949 C 388.527 214.525,389.083 215.466,389.378 216.042 C 389.674 216.617,390.293 217.716,390.755 218.483 C 391.217 219.250,391.744 220.200,391.926 220.593 C 392.109 220.987,392.739 222.021,393.327 222.893 C 393.915 223.764,394.566 224.854,394.775 225.316 C 394.983 225.778,395.534 226.783,395.999 227.550 C 397.140 229.431,397.559 230.426,397.559 231.251 C 397.559 231.942,394.672 237.256,393.824 238.124 C 393.576 238.378,393.374 238.811,393.374 239.087 C 393.374 239.363,392.825 240.370,392.153 241.325 C 391.482 242.280,390.933 243.196,390.933 243.361 C 390.933 243.525,390.619 244.022,390.235 244.464 C 389.852 244.906,389.538 245.444,389.538 245.659 C 389.538 245.873,388.989 246.883,388.317 247.902 C 387.646 248.922,387.097 249.840,387.097 249.942 C 387.097 250.103,385.216 253.377,382.668 257.650 C 382.247 258.358,381.733 259.250,381.527 259.634 C 381.320 260.017,380.777 260.959,380.319 261.726 C 379.861 262.493,378.987 264.063,378.376 265.214 C 377.765 266.364,377.069 267.541,376.829 267.829 C 376.589 268.117,376.290 268.639,376.165 268.990 C 376.040 269.341,375.426 270.439,374.800 271.431 C 372.991 274.298,372.839 274.563,372.270 275.831 C 371.973 276.492,371.358 277.522,370.902 278.120 C 370.446 278.718,369.823 279.747,369.518 280.406 C 369.213 281.065,368.655 282.075,368.277 282.650 C 367.899 283.226,367.355 284.167,367.068 284.743 C 366.384 286.115,364.854 288.703,364.079 289.799 C 363.740 290.279,363.210 291.221,362.901 291.892 C 362.345 293.101,361.030 295.440,359.962 297.123 C 359.657 297.602,358.948 298.858,358.386 299.913 C 357.824 300.968,356.867 302.616,356.259 303.575 C 355.652 304.534,354.785 306.024,354.334 306.888 C 353.883 307.751,353.302 308.705,353.043 309.007 C 352.784 309.310,352.572 309.721,352.572 309.919 C 352.572 310.118,352.276 310.657,351.915 311.116 C 351.215 312.006,349.408 315.094,348.574 316.827 C 348.297 317.402,347.593 318.579,347.009 319.442 C 346.426 320.305,345.948 321.186,345.947 321.400 C 345.947 321.614,345.634 322.185,345.253 322.670 C 344.872 323.154,344.127 324.360,343.597 325.350 C 342.263 327.842,341.727 328.764,340.445 330.776 C 339.833 331.735,339.330 332.705,339.327 332.931 C 339.323 333.157,339.101 333.560,338.834 333.827 C 338.567 334.094,337.952 335.096,337.467 336.054 C 336.981 337.011,336.337 338.000,336.034 338.251 C 335.732 338.502,335.484 338.981,335.484 339.316 C 335.484 339.650,335.195 340.298,334.842 340.755 C 334.489 341.212,333.768 342.332,333.240 343.243 L 332.279 344.900 200.681 344.900 L 69.084 344.900 67.759 342.592 C 67.030 341.322,65.987 339.478,65.440 338.494 C 64.893 337.510,64.251 336.469,64.012 336.181 C 63.773 335.894,63.223 334.907,62.789 333.990 C 62.356 333.072,61.797 332.117,61.547 331.867 C 61.297 331.617,60.357 330.014,59.459 328.305 C 58.560 326.595,57.604 324.948,57.334 324.646 C 57.065 324.343,56.844 323.932,56.844 323.734 C 56.844 323.535,56.551 322.998,56.193 322.540 C 55.835 322.083,55.089 320.881,54.536 319.870 C 53.983 318.858,53.179 317.446,52.749 316.731 C 52.319 316.016,51.724 314.961,51.427 314.385 C 51.130 313.810,50.540 312.754,50.117 312.040 C 49.693 311.325,48.897 309.913,48.348 308.901 C 47.799 307.890,47.143 306.826,46.890 306.538 C 46.637 306.250,46.255 305.622,46.041 305.143 C 45.827 304.664,45.036 303.252,44.284 302.005 C 43.531 300.759,42.657 299.189,42.342 298.518 C 42.026 297.847,41.237 296.496,40.587 295.518 C 39.938 294.539,39.407 293.570,39.407 293.365 C 39.407 293.159,38.897 292.313,38.273 291.483 C 37.650 290.653,36.671 289.032,36.099 287.881 C 35.527 286.731,34.546 285.008,33.920 284.053 C 33.294 283.099,32.781 282.169,32.781 281.988 C 32.781 281.807,32.563 281.411,32.297 281.109 C 32.031 280.806,31.377 279.695,30.844 278.640 C 30.310 277.585,29.681 276.486,29.445 276.199 C 28.984 275.637,27.123 272.400,26.437 270.968 C 26.208 270.488,25.833 269.861,25.604 269.573 C 25.375 269.285,24.738 268.222,24.189 267.211 C 23.640 266.199,22.839 264.787,22.409 264.072 C 21.979 263.357,21.428 262.380,21.185 261.901 C 20.941 261.421,20.292 260.334,19.743 259.484 C 19.193 258.634,18.523 257.457,18.253 256.868 C 17.984 256.279,17.456 255.327,17.081 254.752 C 16.705 254.176,16.204 253.313,15.966 252.833 C 15.729 252.354,15.058 251.255,14.475 250.392 C 13.892 249.529,12.959 247.881,12.401 246.731 C 11.843 245.580,11.194 244.403,10.959 244.115 C 10.724 243.827,10.085 242.787,9.538 241.802 C 8.991 240.818,7.916 238.951,7.149 237.652 C 4.170 232.610,3.882 232.063,3.859 231.407 C 3.840 230.851,5.497 227.621,7.001 225.283 C 7.186 224.996,7.581 224.289,7.878 223.714 C 8.175 223.139,8.797 222.040,9.261 221.273 C 9.725 220.506,10.279 219.446,10.492 218.919 C 10.705 218.391,11.008 217.960,11.165 217.960 C 11.322 217.960,11.950 216.979,12.560 215.780 C 13.171 214.582,14.044 212.973,14.500 212.206 C 14.957 211.439,15.526 210.418,15.765 209.939 C 16.005 209.459,16.714 208.323,17.342 207.414 C 17.969 206.505,18.483 205.619,18.483 205.444 C 18.483 205.270,19.022 204.326,19.680 203.348 C 20.339 202.369,20.985 201.216,21.116 200.784 C 21.248 200.353,21.556 199.765,21.802 199.477 C 22.047 199.189,22.761 198.012,23.387 196.861 C 24.696 194.454,25.199 193.569,26.355 191.630 C 26.813 190.863,27.387 189.843,27.630 189.364 C 27.874 188.884,28.583 187.711,29.207 186.756 C 29.830 185.801,30.340 184.872,30.340 184.691 C 30.340 184.510,30.569 184.109,30.849 183.799 C 31.129 183.490,31.857 182.303,32.465 181.162 C 33.074 180.022,33.973 178.458,34.463 177.687 C 34.954 176.917,35.814 175.423,36.374 174.368 C 36.935 173.313,37.612 172.202,37.877 171.899 C 38.143 171.596,38.361 171.240,38.361 171.107 C 38.361 170.973,39.106 169.601,40.017 168.057 C 40.929 166.513,42.124 164.439,42.673 163.448 C 43.223 162.457,43.968 161.271,44.330 160.811 C 44.691 160.352,44.987 159.837,44.987 159.668 C 44.987 159.316,50.093 150.400,50.749 149.608 C 50.987 149.320,51.297 148.692,51.437 148.213 C 51.578 147.733,51.955 147.027,52.275 146.643 C 52.595 146.260,53.235 145.240,53.698 144.377 C 54.160 143.514,54.743 142.600,54.994 142.346 C 55.244 142.093,55.449 141.592,55.449 141.234 C 55.449 140.875,55.593 140.493,55.769 140.384 C 56.065 140.201,57.214 138.299,59.761 133.778 C 60.311 132.802,61.056 131.628,61.418 131.169 C 61.779 130.709,62.075 130.205,62.075 130.048 C 62.075 129.802,68.502 118.518,70.160 115.853 C 70.483 115.333,71.084 114.246,71.494 113.436 C 71.905 112.626,72.644 111.371,73.137 110.646 C 74.104 109.224,75.460 106.871,76.911 104.098 C 77.413 103.139,78.031 102.119,78.284 101.831 C 78.537 101.543,78.993 100.759,79.296 100.087 C 79.599 99.416,80.044 98.553,80.285 98.169 C 80.527 97.786,81.236 96.660,81.862 95.668 C 82.488 94.676,83.106 93.589,83.235 93.252 C 83.365 92.914,83.992 91.846,84.630 90.878 C 85.267 89.910,85.789 88.939,85.789 88.721 C 85.789 88.503,86.101 87.928,86.482 87.444 C 86.863 86.960,87.573 85.801,88.061 84.868 C 89.029 83.018,89.258 82.626,90.888 80.035 C 91.492 79.076,92.239 77.742,92.548 77.071 C 92.858 76.399,93.420 75.379,93.798 74.804 C 94.176 74.228,94.727 73.287,95.022 72.711 C 95.317 72.136,95.935 71.037,96.395 70.270 C 97.630 68.211,98.281 67.077,98.874 65.948 C 99.166 65.393,99.636 64.746,99.920 64.510 C 100.204 64.275,100.436 63.810,100.436 63.477 C 100.436 63.145,100.946 62.183,101.569 61.340 C 102.193 60.498,103.165 58.867,103.729 57.716 C 104.294 56.565,104.949 55.428,105.185 55.189 C 105.421 54.950,106.032 53.930,106.543 52.922 C 107.054 51.914,107.842 50.462,108.295 49.695 C 108.748 48.928,109.268 47.978,109.450 47.585 C 109.633 47.191,110.263 46.156,110.851 45.285 C 111.439 44.414,112.093 43.323,112.305 42.862 C 112.798 41.787,113.647 40.306,114.812 38.491 C 115.320 37.699,115.981 36.522,116.280 35.875 C 116.580 35.228,117.140 34.228,117.524 33.653 C 117.908 33.078,118.469 32.136,118.769 31.561 C 119.070 30.985,119.658 29.941,120.076 29.241 C 121.936 26.128,122.755 24.655,122.755 24.422 C 122.755 24.284,123.069 23.887,123.452 23.540 C 123.836 23.193,124.150 22.696,124.150 22.436 C 124.150 22.176,124.660 21.215,125.283 20.300 C 125.907 19.386,126.799 17.857,127.267 16.904 C 127.735 15.950,128.311 14.935,128.547 14.647 C 128.783 14.359,129.499 13.165,130.137 11.994 C 132.764 7.178,134.798 3.909,135.484 3.406 C 135.676 3.265,165.110 3.147,200.894 3.144 L 265.955 3.139 266.826 4.098 M200.404 118.523 C 200.051 118.662,199.266 119.667,198.660 120.755 C 198.055 121.844,194.270 128.428,190.251 135.386 C 186.232 142.345,182.623 148.616,182.230 149.321 C 181.325 150.949,153.209 199.638,146.672 210.900 C 143.971 215.552,141.526 219.794,141.238 220.327 C 140.950 220.859,139.773 222.906,138.622 224.875 C 135.566 230.105,135.313 230.645,135.782 230.945 C 136.381 231.329,265.657 231.274,265.895 230.890 C 266.004 230.712,265.728 229.888,265.280 229.059 C 264.489 227.591,260.061 219.910,258.517 217.327 C 258.095 216.620,257.624 215.804,257.471 215.514 C 257.029 214.675,254.130 209.636,253.287 208.243 C 252.866 207.545,252.358 206.661,252.160 206.277 C 251.962 205.894,251.403 204.952,250.919 204.185 C 250.435 203.418,249.798 202.319,249.504 201.744 C 249.210 201.168,248.594 200.070,248.135 199.303 C 247.677 198.535,247.056 197.437,246.755 196.861 C 246.455 196.286,245.894 195.344,245.510 194.769 C 245.126 194.194,244.565 193.252,244.265 192.677 C 243.964 192.101,243.341 191.003,242.879 190.235 C 242.417 189.468,241.881 188.527,241.688 188.143 C 241.495 187.759,240.941 186.818,240.457 186.051 C 239.973 185.283,239.329 184.185,239.026 183.609 C 237.932 181.532,237.226 180.296,236.888 179.865 C 236.698 179.623,236.026 178.483,235.393 177.332 C 234.140 175.051,233.630 174.155,232.487 172.228 C 232.073 171.530,231.029 169.726,230.167 168.217 C 228.261 164.883,229.114 166.360,221.796 153.734 C 218.439 147.943,215.144 142.227,214.473 141.031 C 210.331 133.655,201.367 118.250,201.221 118.260 C 201.125 118.266,200.757 118.384,200.404 118.523 " stroke="none" fill="#fbfbfb" fill-rule="evenodd"></path><path id="path4" d="M267.018 231.997 C 267.406 232.428,277.721 250.122,289.940 271.316 C 302.159 292.511,312.298 310.087,312.471 310.375 C 313.075 311.379,321.713 326.436,322.232 327.389 C 322.787 328.410,325.033 332.261,326.312 334.385 C 326.733 335.085,327.241 336.015,327.439 336.451 C 327.758 337.151,329.253 339.656,330.517 341.607 C 330.758 341.980,331.136 342.637,331.358 343.069 C 331.909 344.145,332.100 344.074,333.257 342.371 C 333.810 341.556,334.459 340.682,334.699 340.428 C 334.939 340.175,335.135 339.689,335.135 339.349 C 335.135 339.009,335.449 338.447,335.833 338.099 C 336.216 337.752,336.533 337.296,336.537 337.086 C 336.540 336.876,337.040 335.920,337.647 334.961 C 338.254 334.002,339.213 332.354,339.778 331.299 C 340.343 330.244,341.334 328.580,341.980 327.601 C 342.627 326.622,343.156 325.677,343.156 325.501 C 343.156 325.325,343.693 324.365,344.350 323.367 C 345.007 322.370,345.655 321.197,345.792 320.760 C 345.928 320.323,346.136 319.887,346.255 319.791 C 346.719 319.413,347.927 317.465,348.362 316.391 C 348.614 315.767,348.941 315.257,349.089 315.257 C 349.237 315.257,349.458 314.856,349.582 314.365 C 349.705 313.874,350.349 312.699,351.014 311.753 C 351.679 310.807,352.223 309.910,352.223 309.760 C 352.223 309.610,352.773 308.652,353.445 307.631 C 354.118 306.611,354.763 305.396,354.879 304.932 C 354.996 304.468,355.275 303.973,355.500 303.832 C 355.994 303.521,358.663 299.008,359.003 297.908 C 359.136 297.476,359.376 297.123,359.536 297.123 C 359.696 297.123,359.984 296.674,360.175 296.125 C 360.366 295.577,360.967 294.439,361.509 293.597 C 362.052 292.755,362.911 291.260,363.418 290.274 C 363.925 289.288,364.910 287.624,365.605 286.576 C 366.301 285.528,366.870 284.526,366.870 284.350 C 366.870 284.174,367.419 283.195,368.091 282.176 C 368.762 281.157,369.311 280.201,369.311 280.051 C 369.311 279.902,369.607 279.404,369.968 278.945 C 370.795 277.893,372.611 274.692,373.355 272.973 C 373.666 272.254,374.042 271.665,374.191 271.665 C 374.339 271.665,374.557 271.391,374.673 271.055 C 374.901 270.403,375.944 268.528,377.343 266.260 C 378.530 264.333,379.289 262.978,379.951 261.597 C 380.262 260.950,380.934 259.773,381.445 258.981 C 382.988 256.592,383.219 256.196,383.814 254.926 C 384.128 254.255,384.512 253.626,384.666 253.528 C 384.820 253.431,385.521 252.254,386.223 250.913 C 388.237 247.066,389.708 244.503,390.164 244.047 C 390.395 243.816,390.584 243.445,390.584 243.224 C 390.584 243.002,391.110 242.131,391.754 241.288 C 392.397 240.445,393.043 239.364,393.190 238.884 C 393.337 238.405,393.650 237.777,393.887 237.489 C 394.123 237.201,394.691 236.260,395.148 235.397 C 395.605 234.534,396.256 233.453,396.594 232.996 C 398.005 231.090,402.451 231.212,331.761 231.212 L 266.313 231.212 267.018 231.997 M4.955 231.929 C 5.283 232.121,5.654 232.822,5.779 233.488 C 5.909 234.180,6.214 234.699,6.490 234.699 C 6.757 234.699,6.975 234.871,6.975 235.080 C 6.975 235.290,7.289 235.860,7.672 236.348 C 8.056 236.835,8.370 237.492,8.370 237.807 C 8.370 238.122,8.684 238.649,9.067 238.977 C 9.451 239.306,9.765 239.969,9.765 240.450 C 9.765 240.931,9.966 241.325,10.211 241.325 C 10.457 241.325,10.844 241.757,11.070 242.284 C 11.487 243.252,11.838 243.859,12.976 245.583 C 13.320 246.103,13.601 246.745,13.601 247.011 C 13.601 247.277,13.915 247.778,14.298 248.126 C 14.682 248.473,14.996 249.125,14.996 249.575 C 14.996 250.075,15.202 250.392,15.527 250.392 C 15.837 250.392,16.145 250.822,16.265 251.421 C 16.378 251.986,16.766 252.717,17.128 253.044 C 17.490 253.371,17.786 253.833,17.786 254.071 C 17.786 254.308,18.021 254.593,18.309 254.703 C 18.596 254.814,18.832 255.202,18.832 255.565 C 18.832 255.929,19.146 256.626,19.529 257.113 C 19.913 257.601,20.227 258.108,20.227 258.239 C 20.227 258.370,20.541 258.877,20.924 259.364 C 21.308 259.852,21.622 260.519,21.622 260.847 C 21.622 261.175,21.935 261.728,22.319 262.075 C 22.703 262.422,23.017 262.996,23.017 263.350 C 23.017 263.703,23.171 263.993,23.361 263.993 C 23.550 263.993,23.943 264.503,24.235 265.126 C 24.527 265.750,25.149 266.888,25.618 267.655 C 26.087 268.422,26.583 269.285,26.721 269.573 C 26.859 269.861,27.259 270.470,27.609 270.928 C 27.960 271.385,28.248 272.035,28.248 272.372 C 28.248 272.710,28.463 273.068,28.726 273.169 C 28.989 273.270,29.313 273.787,29.446 274.318 C 29.580 274.849,29.903 275.450,30.165 275.654 C 30.428 275.858,31.021 276.749,31.485 277.634 C 31.949 278.520,32.587 279.614,32.903 280.066 C 33.220 280.518,33.479 281.171,33.479 281.518 C 33.479 281.865,33.714 282.240,34.002 282.350 C 34.289 282.460,34.525 282.758,34.525 283.012 C 34.525 283.265,34.766 283.714,35.061 284.008 C 35.355 284.303,35.824 285.088,36.102 285.753 C 36.379 286.418,36.766 287.060,36.961 287.181 C 37.155 287.301,37.315 287.618,37.315 287.885 C 37.315 288.404,39.225 291.389,39.774 291.729 C 39.956 291.841,40.105 292.308,40.105 292.767 C 40.105 293.226,40.301 293.726,40.541 293.880 C 41.162 294.277,42.544 296.313,42.556 296.847 C 42.561 297.095,43.189 298.236,43.951 299.382 C 44.712 300.529,45.336 301.721,45.336 302.031 C 45.336 302.341,45.650 302.879,46.033 303.226 C 46.417 303.573,46.731 304.075,46.731 304.341 C 46.731 304.607,47.044 305.161,47.428 305.573 C 47.812 305.985,48.126 306.511,48.126 306.742 C 48.126 306.973,48.346 307.246,48.616 307.350 C 48.885 307.453,49.214 308.030,49.346 308.631 C 49.478 309.233,49.807 309.809,50.076 309.913 C 50.346 310.016,50.567 310.377,50.567 310.714 C 50.567 311.051,50.881 311.726,51.264 312.214 C 51.648 312.701,51.962 313.272,51.962 313.481 C 51.962 313.691,52.276 314.176,52.659 314.560 C 53.043 314.943,53.357 315.493,53.357 315.780 C 53.357 316.068,53.670 316.617,54.054 317.001 C 54.438 317.384,54.752 317.995,54.752 318.359 C 54.752 318.722,54.987 319.109,55.275 319.219 C 55.562 319.330,55.798 319.596,55.798 319.812 C 55.798 320.028,56.112 320.603,56.495 321.091 C 56.879 321.578,57.193 322.270,57.193 322.628 C 57.193 322.985,57.353 323.278,57.549 323.278 C 57.745 323.278,58.091 323.710,58.318 324.237 C 58.545 324.765,59.012 325.477,59.356 325.820 C 59.701 326.163,59.983 326.835,59.983 327.313 C 59.983 327.791,60.218 328.273,60.506 328.383 C 60.793 328.493,61.029 328.755,61.029 328.964 C 61.029 329.354,62.604 331.809,63.383 332.632 C 63.622 332.885,63.819 333.439,63.819 333.862 C 63.819 334.285,64.133 334.900,64.516 335.229 C 64.900 335.557,65.214 336.046,65.214 336.315 C 65.214 336.584,65.434 336.889,65.704 336.992 C 65.973 337.096,66.300 337.662,66.429 338.250 C 66.558 338.839,66.806 339.320,66.980 339.320 C 67.154 339.320,67.538 339.830,67.834 340.453 C 69.251 343.444,69.439 343.413,71.021 339.930 C 71.261 339.403,71.622 338.971,71.823 338.971 C 72.024 338.971,72.188 338.679,72.188 338.321 C 72.188 337.963,72.502 337.271,72.886 336.784 C 73.269 336.296,73.583 335.761,73.583 335.595 C 73.583 335.429,74.093 334.513,74.717 333.558 C 75.340 332.603,76.043 331.391,76.278 330.863 C 76.514 330.336,76.867 329.904,77.063 329.904 C 77.259 329.904,77.419 329.611,77.419 329.254 C 77.419 328.896,77.700 328.229,78.044 327.772 C 78.387 327.314,78.859 326.548,79.093 326.068 C 79.328 325.588,79.826 324.725,80.202 324.150 C 80.577 323.575,81.126 322.633,81.421 322.058 C 81.716 321.482,82.338 320.384,82.803 319.616 C 83.268 318.849,83.901 317.751,84.208 317.175 C 85.665 314.453,85.912 314.025,86.124 313.862 C 86.249 313.766,86.558 313.178,86.810 312.554 C 87.062 311.931,87.375 311.421,87.505 311.421 C 87.635 311.421,87.940 310.872,88.183 310.201 C 88.425 309.529,88.754 308.980,88.912 308.980 C 89.071 308.980,89.299 308.588,89.420 308.108 C 89.540 307.629,89.780 307.236,89.953 307.236 C 90.127 307.236,90.450 306.687,90.671 306.016 C 90.893 305.344,91.207 304.795,91.369 304.795 C 91.531 304.795,91.845 304.246,92.066 303.575 C 92.288 302.903,92.597 302.354,92.753 302.354 C 92.909 302.354,93.133 301.973,93.250 301.507 C 93.367 301.040,93.660 300.452,93.902 300.199 C 94.143 299.946,94.539 299.346,94.780 298.867 C 95.021 298.387,95.597 297.367,96.060 296.600 C 96.522 295.833,97.146 294.734,97.447 294.159 C 97.747 293.583,98.308 292.642,98.692 292.066 C 99.077 291.491,99.628 290.510,99.918 289.887 C 100.208 289.263,100.600 288.753,100.789 288.753 C 100.979 288.753,101.133 288.461,101.133 288.103 C 101.133 287.745,101.414 287.078,101.758 286.621 C 102.101 286.163,102.573 285.397,102.807 284.917 C 103.040 284.438,103.544 283.535,103.926 282.912 C 105.575 280.222,106.025 279.453,106.531 278.466 C 106.826 277.890,107.452 276.792,107.923 276.024 C 108.393 275.257,108.957 274.198,109.175 273.670 C 109.393 273.143,109.698 272.711,109.852 272.711 C 110.006 272.711,110.311 272.280,110.530 271.752 C 110.948 270.747,111.746 269.293,113.163 266.957 C 113.628 266.190,114.188 265.131,114.406 264.603 C 114.624 264.076,114.932 263.644,115.090 263.644 C 115.248 263.644,115.559 263.095,115.780 262.424 C 116.002 261.752,116.313 261.203,116.471 261.203 C 116.629 261.203,116.937 260.772,117.155 260.244 C 117.373 259.717,117.931 258.657,118.395 257.890 C 118.860 257.123,119.487 256.024,119.789 255.449 C 121.201 252.762,121.497 252.292,121.936 252.031 C 122.195 251.878,122.406 251.458,122.406 251.097 C 122.406 250.737,122.615 250.234,122.870 249.979 C 123.354 249.494,124.097 248.217,125.014 246.295 C 125.311 245.671,125.709 245.161,125.898 245.161 C 126.088 245.161,126.242 244.847,126.242 244.464 C 126.242 244.080,126.556 243.452,126.940 243.069 C 127.323 242.685,127.637 242.157,127.637 241.895 C 127.637 241.633,127.912 241.043,128.248 240.584 C 129.218 239.255,129.707 238.442,130.265 237.228 C 130.551 236.604,130.940 236.094,131.129 236.094 C 131.319 236.094,131.473 235.780,131.473 235.397 C 131.473 235.013,131.765 234.408,132.120 234.052 C 132.476 233.696,132.872 232.990,132.999 232.483 L 133.230 231.561 68.795 231.571 C 25.805 231.578,4.558 231.697,4.955 231.929 " stroke="none" fill="#23247c" fill-rule="evenodd"></path></g></svg>